<svg preserveAspectRatio="none" width="100%" height="100%" overflow="visible" style="display: block;" viewBox="0 0 15 15" fill="none" xmlns="http://www.w3.org/2000/svg">
<path id="Icon" d="M2.66667 14.3333V11M2.66667 4.33333V1M1 2.66667H4.33333M1 12.6667H4.33333M8.33333 1.66667L7.17721 4.67258C6.98921 5.1614 6.8952 5.4058 6.74902 5.61139C6.61946 5.7936 6.46026 5.95279 6.27806 6.08235C6.07247 6.22854 5.82806 6.32254 5.33924 6.51055L2.33333 7.66667L5.33924 8.82279C5.82806 9.01079 6.07247 9.1048 6.27806 9.25098C6.46027 9.38054 6.61946 9.53974 6.74902 9.72194C6.8952 9.92753 6.98921 10.1719 7.17722 10.6608L8.33333 13.6667L9.48945 10.6608C9.67746 10.1719 9.77146 9.92753 9.91765 9.72194C10.0472 9.53974 10.2064 9.38054 10.3886 9.25098C10.5942 9.1048 10.8386 9.01079 11.3274 8.82279L14.3333 7.66667L11.3274 6.51055C10.8386 6.32254 10.5942 6.22854 10.3886 6.08235C10.2064 5.95279 10.0472 5.7936 9.91765 5.61139C9.77146 5.40581 9.67746 5.16139 9.48945 4.67257L8.33333 1.66667Z" stroke="var(--stroke-0, white)" stroke-linecap="round" stroke-linejoin="round"/>
</svg>
