<svg preserveAspectRatio="none" width="100%" height="100%" overflow="visible" style="display: block;" viewBox="0 0 40 41" fill="none" xmlns="http://www.w3.org/2000/svg">
<g id="Container/Variation 5" filter="url(#filter0_dd_1030_22320)">
<g clip-path="url(#clip0_1030_22320)">
<rect x="4" y="3" width="32" height="32" rx="16" fill="var(--fill-0, #196264)"/>
<g id="bg" opacity="0.5">
<g id="Vector" opacity="0.07" filter="url(#filter1_f_1030_22320)">
<path d="M40.9518 12.7095C40.9412 12.6777 40.9209 12.6499 40.8936 12.6302C40.8664 12.6106 40.8336 12.6 40.8 12.6C40.7664 12.6 40.7336 12.6106 40.7064 12.6302C40.6791 12.6499 40.6588 12.6777 40.6482 12.7095L40.5389 13.0377C40.5311 13.0612 40.5178 13.0827 40.5002 13.1002C40.4827 13.1178 40.4612 13.1311 40.4377 13.1389L40.1095 13.2482C40.0777 13.2588 40.0499 13.2791 40.0302 13.3064C40.0106 13.3336 40 13.3664 40 13.4C40 13.4336 40.0106 13.4664 40.0302 13.4936C40.0499 13.5209 40.0777 13.5412 40.1095 13.5518L40.4377 13.6612C40.4612 13.6691 40.4826 13.6823 40.5002 13.6998C40.5178 13.7174 40.531 13.7388 40.5389 13.7623L40.6482 14.0905C40.6588 14.1224 40.6791 14.1501 40.7064 14.1698C40.7336 14.1894 40.7664 14.2 40.8 14.2C40.8336 14.2 40.8664 14.1894 40.8936 14.1698C40.9209 14.1501 40.9412 14.1224 40.9518 14.0905L41.0611 13.7623C41.0689 13.7388 41.0822 13.7173 41.0998 13.6998C41.1173 13.6822 41.1388 13.6689 41.1623 13.6611L41.4905 13.5518C41.5223 13.5412 41.5501 13.5209 41.5698 13.4936C41.5894 13.4664 41.6 13.4336 41.6 13.4C41.6 13.3664 41.5894 13.3336 41.5698 13.3064C41.5501 13.2791 41.5223 13.2588 41.4905 13.2482L41.1623 13.1389C41.1388 13.1311 41.1173 13.1178 41.0998 13.1002C41.0822 13.0827 41.0689 13.0612 41.0611 13.0377L40.9518 12.7095Z" fill="var(--fill-0, white)"/>
</g>
<g id="Vector_2" opacity="0.26" filter="url(#filter2_f_1030_22320)">
<path d="M4.95182 -4.09046C4.94122 -4.12235 4.92086 -4.15009 4.89361 -4.16976C4.86635 -4.18942 4.8336 -4.2 4.8 -4.2C4.7664 -4.2 4.73365 -4.18942 4.70639 -4.16976C4.67914 -4.15009 4.65878 -4.12235 4.64818 -4.09046L4.53892 -3.76235C4.53107 -3.73876 4.51783 -3.71733 4.50025 -3.69975C4.48267 -3.68217 4.46124 -3.66893 4.43765 -3.66108L4.10954 -3.55182C4.07765 -3.54122 4.04991 -3.52086 4.03024 -3.49361C4.01058 -3.46635 4 -3.4336 4 -3.4C4 -3.3664 4.01058 -3.33365 4.03024 -3.3064C4.04991 -3.27914 4.07765 -3.25878 4.10954 -3.24818L4.43765 -3.13876C4.46122 -3.13092 4.48264 -3.11771 4.50022 -3.10016C4.5178 -3.08261 4.53105 -3.06121 4.53892 -3.03765L4.64818 -2.70954C4.65878 -2.67765 4.67914 -2.64991 4.70639 -2.63024C4.73365 -2.61058 4.7664 -2.6 4.8 -2.6C4.8336 -2.6 4.86635 -2.61058 4.89361 -2.63024C4.92086 -2.64991 4.94122 -2.67765 4.95182 -2.70954L5.06108 -3.03765C5.06893 -3.06124 5.08217 -3.08267 5.09975 -3.10025C5.11733 -3.11783 5.13876 -3.13107 5.16235 -3.13892L5.49046 -3.24818C5.52235 -3.25878 5.55009 -3.27914 5.56976 -3.3064C5.58942 -3.33365 5.6 -3.3664 5.6 -3.4C5.6 -3.4336 5.58942 -3.46635 5.56976 -3.49361C5.55009 -3.52086 5.52235 -3.54122 5.49046 -3.55182L5.16235 -3.66108C5.13876 -3.66893 5.11733 -3.68217 5.09975 -3.69975C5.08217 -3.71733 5.06893 -3.73876 5.06108 -3.76235L4.95182 -4.09046Z" fill="var(--fill-0, white)"/>
</g>
<path id="Vector_3" opacity="0.32" d="M26.5518 13.5095C26.5412 13.4776 26.5209 13.4499 26.4936 13.4302C26.4664 13.4106 26.4336 13.4 26.4 13.4C26.3664 13.4 26.3336 13.4106 26.3064 13.4302C26.2791 13.4499 26.2588 13.4776 26.2482 13.5095L26.1389 13.8377C26.1311 13.8612 26.1178 13.8827 26.1003 13.9002C26.0827 13.9178 26.0612 13.9311 26.0377 13.9389L25.7095 14.0482C25.6777 14.0588 25.6499 14.0791 25.6302 14.1064C25.6106 14.1336 25.6 14.1664 25.6 14.2C25.6 14.2336 25.6106 14.2664 25.6302 14.2936C25.6499 14.3209 25.6777 14.3412 25.7095 14.3518L26.0377 14.4612C26.0612 14.4691 26.0826 14.4823 26.1002 14.4998C26.1178 14.5174 26.131 14.5388 26.1389 14.5623L26.2482 14.8905C26.2588 14.9223 26.2791 14.9501 26.3064 14.9698C26.3336 14.9894 26.3664 15 26.4 15C26.4336 15 26.4664 14.9894 26.4936 14.9698C26.5209 14.9501 26.5412 14.9223 26.5518 14.8905L26.6611 14.5623C26.6689 14.5388 26.6822 14.5173 26.6998 14.4998C26.7173 14.4822 26.7388 14.4689 26.7623 14.4611L27.0905 14.3518C27.1224 14.3412 27.1501 14.3209 27.1698 14.2936C27.1894 14.2664 27.2 14.2336 27.2 14.2C27.2 14.1664 27.1894 14.1336 27.1698 14.1064C27.1501 14.0791 27.1224 14.0588 27.0905 14.0482L26.7623 13.9389C26.7388 13.9311 26.7173 13.9178 26.6998 13.9002C26.6822 13.8827 26.6689 13.8612 26.6611 13.8377L26.5518 13.5095Z" fill="var(--fill-0, white)"/>
<g id="Vector_4" opacity="0.09" filter="url(#filter3_f_1030_22320)">
<path d="M30.5518 3.90954C30.5412 3.87765 30.5209 3.84991 30.4936 3.83024C30.4664 3.81058 30.4336 3.8 30.4 3.8C30.3664 3.8 30.3336 3.81058 30.3064 3.83024C30.2791 3.84991 30.2588 3.87765 30.2482 3.90954L30.1389 4.23765C30.1311 4.26124 30.1178 4.28267 30.1002 4.30025C30.0827 4.31783 30.0612 4.33107 30.0377 4.33892L29.7095 4.44818C29.6776 4.45878 29.6499 4.47914 29.6302 4.50639C29.6106 4.53364 29.6 4.5664 29.6 4.6C29.6 4.6336 29.6106 4.66635 29.6302 4.6936C29.6499 4.72086 29.6776 4.74122 29.7095 4.75182L30.0377 4.86124C30.0612 4.86908 30.0826 4.88229 30.1002 4.89984C30.1178 4.91739 30.131 4.93879 30.1389 4.96235L30.2482 5.29046C30.2588 5.32235 30.2791 5.35009 30.3064 5.36976C30.3336 5.38942 30.3664 5.4 30.4 5.4C30.4336 5.4 30.4664 5.38942 30.4936 5.36976C30.5209 5.35009 30.5412 5.32235 30.5518 5.29046L30.6611 4.96235C30.6689 4.93876 30.6822 4.91733 30.6997 4.89975C30.7173 4.88217 30.7388 4.86893 30.7623 4.86108L31.0905 4.75182C31.1223 4.74122 31.1501 4.72086 31.1698 4.6936C31.1894 4.66635 31.2 4.6336 31.2 4.6C31.2 4.5664 31.1894 4.53364 31.1698 4.50639C31.1501 4.47914 31.1223 4.45878 31.0905 4.44818L30.7623 4.33892C30.7388 4.33107 30.7173 4.31783 30.6997 4.30025C30.6822 4.28267 30.6689 4.26124 30.6611 4.23765L30.5518 3.90954Z" fill="var(--fill-0, white)"/>
</g>
<path id="Vector_5" opacity="0.24" d="M17.7518 -5.69046C17.7412 -5.72235 17.7209 -5.75009 17.6936 -5.76976C17.6664 -5.78942 17.6336 -5.8 17.6 -5.8C17.5664 -5.8 17.5336 -5.78942 17.5064 -5.76976C17.4791 -5.75009 17.4588 -5.72235 17.4482 -5.69046L17.3389 -5.36235C17.3311 -5.33876 17.3178 -5.31733 17.3002 -5.29975C17.2827 -5.28217 17.2612 -5.26893 17.2377 -5.26108L16.9095 -5.15182C16.8777 -5.14122 16.8499 -5.12086 16.8302 -5.09361C16.8106 -5.06635 16.8 -5.0336 16.8 -5C16.8 -4.9664 16.8106 -4.93365 16.8302 -4.90639C16.8499 -4.87914 16.8777 -4.85878 16.9095 -4.84818L17.2377 -4.73876C17.2612 -4.73092 17.2826 -4.71771 17.3002 -4.70016C17.3178 -4.68261 17.331 -4.66121 17.3389 -4.63765L17.4482 -4.30954C17.4588 -4.27765 17.4791 -4.24991 17.5064 -4.23024C17.5336 -4.21058 17.5664 -4.2 17.6 -4.2C17.6336 -4.2 17.6664 -4.21058 17.6936 -4.23024C17.7209 -4.24991 17.7412 -4.27765 17.7518 -4.30954L17.8611 -4.63765C17.8689 -4.66124 17.8822 -4.68267 17.8998 -4.70025C17.9173 -4.71783 17.9388 -4.73107 17.9623 -4.73892L18.2905 -4.84818C18.3224 -4.85878 18.3501 -4.87914 18.3698 -4.90639C18.3894 -4.93365 18.4 -4.9664 18.4 -5C18.4 -5.0336 18.3894 -5.06635 18.3698 -5.09361C18.3501 -5.12086 18.3224 -5.14122 18.2905 -5.15182L17.9623 -5.26108C17.9388 -5.26893 17.9173 -5.28217 17.8998 -5.29975C17.8822 -5.31733 17.8689 -5.33876 17.8611 -5.36235L17.7518 -5.69046Z" fill="var(--fill-0, white)"/>
<path id="Vector_6" opacity="0.24" d="M-2.24818 19.9095C-2.25878 19.8776 -2.27914 19.8499 -2.30639 19.8302C-2.33365 19.8106 -2.3664 19.8 -2.4 19.8C-2.4336 19.8 -2.46635 19.8106 -2.4936 19.8302C-2.52086 19.8499 -2.54122 19.8776 -2.55182 19.9095L-2.66108 20.2377C-2.66893 20.2612 -2.68217 20.2827 -2.69975 20.3002C-2.71733 20.3178 -2.73876 20.3311 -2.76235 20.3389L-3.09046 20.4482C-3.12235 20.4588 -3.15009 20.4791 -3.16976 20.5064C-3.18942 20.5336 -3.2 20.5664 -3.2 20.6C-3.2 20.6336 -3.18942 20.6664 -3.16976 20.6936C-3.15009 20.7209 -3.12235 20.7412 -3.09046 20.7518L-2.76235 20.8612C-2.73878 20.8691 -2.71736 20.8823 -2.69978 20.8998C-2.6822 20.9174 -2.66895 20.9388 -2.66108 20.9623L-2.55182 21.2905C-2.54122 21.3223 -2.52086 21.3501 -2.4936 21.3698C-2.46635 21.3894 -2.4336 21.4 -2.4 21.4C-2.3664 21.4 -2.33365 21.3894 -2.30639 21.3698C-2.27914 21.3501 -2.25878 21.3223 -2.24818 21.2905L-2.13892 20.9623C-2.13107 20.9388 -2.11783 20.9173 -2.10025 20.8997C-2.08267 20.8822 -2.06124 20.8689 -2.03765 20.8611L-1.70954 20.7518C-1.67765 20.7412 -1.64991 20.7209 -1.63024 20.6936C-1.61058 20.6664 -1.6 20.6336 -1.6 20.6C-1.6 20.5664 -1.61058 20.5336 -1.63024 20.5064C-1.64991 20.4791 -1.67765 20.4588 -1.70954 20.4482L-2.03765 20.3389C-2.06124 20.3311 -2.08267 20.3178 -2.10025 20.3002C-2.11783 20.2827 -2.13107 20.2612 -2.13892 20.2377L-2.24818 19.9095Z" fill="var(--fill-0, white)"/>
<path id="Vector_7" opacity="0.11" d="M12.9518 15.9095C12.9412 15.8776 12.9209 15.8499 12.8936 15.8302C12.8664 15.8106 12.8336 15.8 12.8 15.8C12.7664 15.8 12.7336 15.8106 12.7064 15.8302C12.6791 15.8499 12.6588 15.8776 12.6482 15.9095L12.5389 16.2377C12.5311 16.2612 12.5178 16.2827 12.5002 16.3002C12.4827 16.3178 12.4612 16.3311 12.4377 16.3389L12.1095 16.4482C12.0777 16.4588 12.0499 16.4791 12.0302 16.5064C12.0106 16.5336 12 16.5664 12 16.6C12 16.6336 12.0106 16.6664 12.0302 16.6936C12.0499 16.7209 12.0777 16.7412 12.1095 16.7518L12.4377 16.8612C12.4612 16.8691 12.4826 16.8823 12.5002 16.8998C12.5178 16.9174 12.531 16.9388 12.5389 16.9623L12.6482 17.2905C12.6588 17.3223 12.6791 17.3501 12.7064 17.3698C12.7336 17.3894 12.7664 17.4 12.8 17.4C12.8336 17.4 12.8664 17.3894 12.8936 17.3698C12.9209 17.3501 12.9412 17.3223 12.9518 17.2905L13.0611 16.9623C13.0689 16.9388 13.0822 16.9173 13.0998 16.8997C13.1173 16.8822 13.1388 16.8689 13.1623 16.8611L13.4905 16.7518C13.5223 16.7412 13.5501 16.7209 13.5698 16.6936C13.5894 16.6664 13.6 16.6336 13.6 16.6C13.6 16.5664 13.5894 16.5336 13.5698 16.5064C13.5501 16.4791 13.5223 16.4588 13.4905 16.4482L13.1623 16.3389C13.1388 16.3311 13.1173 16.3178 13.0998 16.3002C13.0822 16.2827 13.0689 16.2612 13.0611 16.2377L12.9518 15.9095Z" fill="var(--fill-0, white)"/>
<path id="Vector_8" opacity="0.45" d="M4.15182 19.9095C4.14122 19.8776 4.12086 19.8499 4.0936 19.8302C4.06635 19.8106 4.0336 19.8 4 19.8C3.9664 19.8 3.93365 19.8106 3.90639 19.8302C3.87914 19.8499 3.85878 19.8776 3.84818 19.9095L3.73892 20.2377C3.73107 20.2612 3.71783 20.2827 3.70025 20.3002C3.68267 20.3178 3.66124 20.3311 3.63765 20.3389L3.30954 20.4482C3.27765 20.4588 3.24991 20.4791 3.23024 20.5064C3.21058 20.5336 3.2 20.5664 3.2 20.6C3.2 20.6336 3.21058 20.6664 3.23024 20.6936C3.24991 20.7209 3.27765 20.7412 3.30954 20.7518L3.63765 20.8612C3.66122 20.8691 3.68264 20.8823 3.70022 20.8998C3.7178 20.9174 3.73105 20.9388 3.73892 20.9623L3.84818 21.2905C3.85878 21.3223 3.87914 21.3501 3.90639 21.3698C3.93365 21.3894 3.9664 21.4 4 21.4C4.0336 21.4 4.06635 21.3894 4.0936 21.3698C4.12086 21.3501 4.14122 21.3223 4.15182 21.2905L4.26108 20.9623C4.26893 20.9388 4.28217 20.9173 4.29975 20.8997C4.31733 20.8822 4.33876 20.8689 4.36235 20.8611L4.69046 20.7518C4.72235 20.7412 4.75009 20.7209 4.76976 20.6936C4.78942 20.6664 4.8 20.6336 4.8 20.6C4.8 20.5664 4.78942 20.5336 4.76976 20.5064C4.75009 20.4791 4.72235 20.4588 4.69046 20.4482L4.36235 20.3389C4.33876 20.3311 4.31733 20.3178 4.29975 20.3002C4.28217 20.2827 4.26893 20.2612 4.26108 20.2377L4.15182 19.9095Z" fill="var(--fill-0, white)"/>
<path id="Vector_9" opacity="0.2" d="M28.9518 11.1095C28.9412 11.0777 28.9209 11.0499 28.8936 11.0302C28.8664 11.0106 28.8336 11 28.8 11C28.7664 11 28.7336 11.0106 28.7064 11.0302C28.6791 11.0499 28.6588 11.0777 28.6482 11.1095L28.5389 11.4377C28.5311 11.4612 28.5178 11.4827 28.5002 11.5002C28.4827 11.5178 28.4612 11.5311 28.4377 11.5389L28.1095 11.6482C28.0777 11.6588 28.0499 11.6791 28.0302 11.7064C28.0106 11.7336 28 11.7664 28 11.8C28 11.8336 28.0106 11.8664 28.0302 11.8936C28.0499 11.9209 28.0777 11.9412 28.1095 11.9518L28.4377 12.0612C28.4612 12.0691 28.4826 12.0823 28.5002 12.0998C28.5178 12.1174 28.531 12.1388 28.5389 12.1623L28.6482 12.4905C28.6588 12.5223 28.6791 12.5501 28.7064 12.5698C28.7336 12.5894 28.7664 12.6 28.8 12.6C28.8336 12.6 28.8664 12.5894 28.8936 12.5698C28.9209 12.5501 28.9412 12.5223 28.9518 12.4905L29.0611 12.1623C29.0689 12.1388 29.0822 12.1173 29.0998 12.0998C29.1173 12.0822 29.1388 12.0689 29.1623 12.0611L29.4905 11.9518C29.5223 11.9412 29.5501 11.9209 29.5698 11.8936C29.5894 11.8664 29.6 11.8336 29.6 11.8C29.6 11.7664 29.5894 11.7336 29.5698 11.7064C29.5501 11.6791 29.5223 11.6588 29.4905 11.6482L29.1623 11.5389C29.1388 11.5311 29.1173 11.5178 29.0998 11.5002C29.0822 11.4827 29.0689 11.4612 29.0611 11.4377L28.9518 11.1095Z" fill="var(--fill-0, white)"/>
<path id="Vector_10" opacity="0.32" d="M18.5518 4.70954C18.5412 4.67765 18.5209 4.64991 18.4936 4.63024C18.4664 4.61058 18.4336 4.6 18.4 4.6C18.3664 4.6 18.3336 4.61058 18.3064 4.63024C18.2791 4.64991 18.2588 4.67765 18.2482 4.70954L18.1389 5.03765C18.1311 5.06124 18.1178 5.08267 18.1003 5.10025C18.0827 5.11783 18.0612 5.13107 18.0377 5.13892L17.7095 5.24818C17.6777 5.25878 17.6499 5.27914 17.6302 5.3064C17.6106 5.33365 17.6 5.3664 17.6 5.4C17.6 5.4336 17.6106 5.46635 17.6302 5.49361C17.6499 5.52086 17.6777 5.54122 17.7095 5.55182L18.0377 5.66124C18.0612 5.66908 18.0826 5.68229 18.1002 5.69984C18.1178 5.71739 18.131 5.73879 18.1389 5.76235L18.2482 6.09046C18.2588 6.12235 18.2791 6.15009 18.3064 6.16976C18.3336 6.18942 18.3664 6.2 18.4 6.2C18.4336 6.2 18.4664 6.18942 18.4936 6.16976C18.5209 6.15009 18.5412 6.12235 18.5518 6.09046L18.6611 5.76235C18.6689 5.73876 18.6822 5.71733 18.6998 5.69975C18.7173 5.68217 18.7388 5.66893 18.7623 5.66108L19.0905 5.55182C19.1224 5.54122 19.1501 5.52086 19.1698 5.49361C19.1894 5.46635 19.2 5.4336 19.2 5.4C19.2 5.3664 19.1894 5.33365 19.1698 5.3064C19.1501 5.27914 19.1224 5.25878 19.0905 5.24818L18.7623 5.13892C18.7388 5.13107 18.7173 5.11783 18.6998 5.10025C18.6822 5.08267 18.6689 5.06124 18.6611 5.03765L18.5518 4.70954Z" fill="var(--fill-0, white)"/>
<g id="Vector_11" opacity="0.55" filter="url(#filter4_f_1030_22320)">
<path d="M24.9518 11.9095C24.9412 11.8776 24.9209 11.8499 24.8936 11.8302C24.8664 11.8106 24.8336 11.8 24.8 11.8C24.7664 11.8 24.7336 11.8106 24.7064 11.8302C24.6791 11.8499 24.6588 11.8776 24.6482 11.9095L24.5389 12.2377C24.5311 12.2612 24.5178 12.2827 24.5002 12.3002C24.4827 12.3178 24.4612 12.3311 24.4377 12.3389L24.1095 12.4482C24.0777 12.4588 24.0499 12.4791 24.0302 12.5064C24.0106 12.5336 24 12.5664 24 12.6C24 12.6336 24.0106 12.6664 24.0302 12.6936C24.0499 12.7209 24.0777 12.7412 24.1095 12.7518L24.4377 12.8612C24.4612 12.8691 24.4826 12.8823 24.5002 12.8998C24.5178 12.9174 24.531 12.9388 24.5389 12.9623L24.6482 13.2905C24.6588 13.3223 24.6791 13.3501 24.7064 13.3698C24.7336 13.3894 24.7664 13.4 24.8 13.4C24.8336 13.4 24.8664 13.3894 24.8936 13.3698C24.9209 13.3501 24.9412 13.3223 24.9518 13.2905L25.0611 12.9623C25.0689 12.9388 25.0822 12.9173 25.0998 12.8997C25.1173 12.8822 25.1388 12.8689 25.1623 12.8611L25.4905 12.7518C25.5223 12.7412 25.5501 12.7209 25.5698 12.6936C25.5894 12.6664 25.6 12.6336 25.6 12.6C25.6 12.5664 25.5894 12.5336 25.5698 12.5064C25.5501 12.4791 25.5223 12.4588 25.4905 12.4482L25.1623 12.3389C25.1388 12.3311 25.1173 12.3178 25.0998 12.3002C25.0822 12.2827 25.0689 12.2612 25.0611 12.2377L24.9518 11.9095Z" fill="var(--fill-0, white)"/>
</g>
<g id="Vector_12" opacity="0.31" filter="url(#filter5_f_1030_22320)">
<path d="M15.3518 11.9095C15.3412 11.8776 15.3209 11.8499 15.2936 11.8302C15.2664 11.8106 15.2336 11.8 15.2 11.8C15.1664 11.8 15.1336 11.8106 15.1064 11.8302C15.0791 11.8499 15.0588 11.8776 15.0482 11.9095L14.9389 12.2377C14.9311 12.2612 14.9178 12.2827 14.9002 12.3002C14.8827 12.3178 14.8612 12.3311 14.8377 12.3389L14.5095 12.4482C14.4777 12.4588 14.4499 12.4791 14.4302 12.5064C14.4106 12.5336 14.4 12.5664 14.4 12.6C14.4 12.6336 14.4106 12.6664 14.4302 12.6936C14.4499 12.7209 14.4777 12.7412 14.5095 12.7518L14.8377 12.8612C14.8612 12.8691 14.8826 12.8823 14.9002 12.8998C14.9178 12.9174 14.931 12.9388 14.9389 12.9623L15.0482 13.2905C15.0588 13.3223 15.0791 13.3501 15.1064 13.3698C15.1336 13.3894 15.1664 13.4 15.2 13.4C15.2336 13.4 15.2664 13.3894 15.2936 13.3698C15.3209 13.3501 15.3412 13.3223 15.3518 13.2905L15.4611 12.9623C15.4689 12.9388 15.4822 12.9173 15.4998 12.8997C15.5173 12.8822 15.5388 12.8689 15.5623 12.8611L15.8905 12.7518C15.9224 12.7412 15.9501 12.7209 15.9698 12.6936C15.9894 12.6664 16 12.6336 16 12.6C16 12.5664 15.9894 12.5336 15.9698 12.5064C15.9501 12.4791 15.9224 12.4588 15.8905 12.4482L15.5623 12.3389C15.5388 12.3311 15.5173 12.3178 15.4998 12.3002C15.4822 12.2827 15.4689 12.2612 15.4611 12.2377L15.3518 11.9095Z" fill="var(--fill-0, white)"/>
</g>
<g id="Vector_13" opacity="0.17" filter="url(#filter6_f_1030_22320)">
<path d="M24.1518 4.70954C24.1412 4.67765 24.1209 4.64991 24.0936 4.63024C24.0664 4.61058 24.0336 4.6 24 4.6C23.9664 4.6 23.9336 4.61058 23.9064 4.63024C23.8791 4.64991 23.8588 4.67765 23.8482 4.70954L23.7389 5.03765C23.7311 5.06124 23.7178 5.08267 23.7003 5.10025C23.6827 5.11783 23.6612 5.13107 23.6377 5.13892L23.3095 5.24818C23.2777 5.25878 23.2499 5.27914 23.2302 5.3064C23.2106 5.33365 23.2 5.3664 23.2 5.4C23.2 5.4336 23.2106 5.46635 23.2302 5.49361C23.2499 5.52086 23.2777 5.54122 23.3095 5.55182L23.6377 5.66124C23.6612 5.66908 23.6826 5.68229 23.7002 5.69984C23.7178 5.71739 23.731 5.73879 23.7389 5.76235L23.8482 6.09046C23.8588 6.12235 23.8791 6.15009 23.9064 6.16976C23.9336 6.18942 23.9664 6.2 24 6.2C24.0336 6.2 24.0664 6.18942 24.0936 6.16976C24.1209 6.15009 24.1412 6.12235 24.1518 6.09046L24.2611 5.76235C24.2689 5.73876 24.2822 5.71733 24.2998 5.69975C24.3173 5.68217 24.3388 5.66893 24.3623 5.66108L24.6905 5.55182C24.7224 5.54122 24.7501 5.52086 24.7698 5.49361C24.7894 5.46635 24.8 5.4336 24.8 5.4C24.8 5.3664 24.7894 5.33365 24.7698 5.3064C24.7501 5.27914 24.7224 5.25878 24.6905 5.24818L24.3623 5.13892C24.3388 5.13107 24.3173 5.11783 24.2998 5.10025C24.2822 5.08267 24.2689 5.06124 24.2611 5.03765L24.1518 4.70954Z" fill="var(--fill-0, white)"/>
</g>
<path id="Vector_14" opacity="0.33" d="M8.95182 10.3095C8.94122 10.2777 8.92086 10.2499 8.89361 10.2302C8.86635 10.2106 8.8336 10.2 8.8 10.2C8.7664 10.2 8.73365 10.2106 8.70639 10.2302C8.67914 10.2499 8.65878 10.2777 8.64818 10.3095L8.53892 10.6377C8.53107 10.6612 8.51783 10.6827 8.50025 10.7003C8.48267 10.7178 8.46124 10.7311 8.43765 10.7389L8.10954 10.8482C8.07765 10.8588 8.04991 10.8791 8.03024 10.9064C8.01058 10.9336 8 10.9664 8 11C8 11.0336 8.01058 11.0664 8.03024 11.0936C8.04991 11.1209 8.07765 11.1412 8.10954 11.1518L8.43765 11.2612C8.46122 11.2691 8.48264 11.2823 8.50022 11.2998C8.5178 11.3174 8.53105 11.3388 8.53892 11.3623L8.64818 11.6905C8.65878 11.7224 8.67914 11.7501 8.70639 11.7698C8.73365 11.7894 8.7664 11.8 8.8 11.8C8.8336 11.8 8.86635 11.7894 8.89361 11.7698C8.92086 11.7501 8.94122 11.7224 8.95182 11.6905L9.06108 11.3623C9.06893 11.3388 9.08217 11.3173 9.09975 11.2998C9.11733 11.2822 9.13876 11.2689 9.16235 11.2611L9.49046 11.1518C9.52235 11.1412 9.55009 11.1209 9.56976 11.0936C9.58942 11.0664 9.6 11.0336 9.6 11C9.6 10.9664 9.58942 10.9336 9.56976 10.9064C9.55009 10.8791 9.52235 10.8588 9.49046 10.8482L9.16235 10.7389C9.13876 10.7311 9.11733 10.7178 9.09975 10.7003C9.08217 10.6827 9.06893 10.6612 9.06108 10.6377L8.95182 10.3095Z" fill="var(--fill-0, white)"/>
<g id="Vector_15" opacity="0.47" filter="url(#filter7_f_1030_22320)">
<path d="M2.55182 3.90954C2.54122 3.87765 2.52086 3.84991 2.49361 3.83024C2.46635 3.81058 2.4336 3.8 2.4 3.8C2.3664 3.8 2.33365 3.81058 2.3064 3.83024C2.27914 3.84991 2.25878 3.87765 2.24818 3.90954L2.13892 4.23765C2.13107 4.26124 2.11783 4.28267 2.10025 4.30025C2.08267 4.31783 2.06124 4.33107 2.03765 4.33892L1.70954 4.44818C1.67765 4.45878 1.64991 4.47914 1.63024 4.50639C1.61058 4.53364 1.6 4.5664 1.6 4.6C1.6 4.6336 1.61058 4.66635 1.63024 4.6936C1.64991 4.72086 1.67765 4.74122 1.70954 4.75182L2.03765 4.86124C2.06122 4.86908 2.08264 4.88229 2.10022 4.89984C2.1178 4.91739 2.13105 4.93879 2.13892 4.96235L2.24818 5.29046C2.25878 5.32235 2.27914 5.35009 2.3064 5.36976C2.33365 5.38942 2.3664 5.4 2.4 5.4C2.4336 5.4 2.46635 5.38942 2.49361 5.36976C2.52086 5.35009 2.54122 5.32235 2.55182 5.29046L2.66108 4.96235C2.66893 4.93876 2.68217 4.91733 2.69975 4.89975C2.71733 4.88217 2.73876 4.86893 2.76235 4.86108L3.09046 4.75182C3.12235 4.74122 3.15009 4.72086 3.16976 4.6936C3.18942 4.66635 3.2 4.6336 3.2 4.6C3.2 4.5664 3.18942 4.53364 3.16976 4.50639C3.15009 4.47914 3.12235 4.45878 3.09046 4.44818L2.76235 4.33892C2.73876 4.33107 2.71733 4.31783 2.69975 4.30025C2.68217 4.28267 2.66893 4.26124 2.66108 4.23765L2.55182 3.90954Z" fill="var(--fill-0, white)"/>
</g>
<path id="Vector_16" opacity="0.39" d="M13.7518 -6.49046C13.7412 -6.52235 13.7209 -6.55009 13.6936 -6.56976C13.6664 -6.58942 13.6336 -6.6 13.6 -6.6C13.5664 -6.6 13.5336 -6.58942 13.5064 -6.56976C13.4791 -6.55009 13.4588 -6.52235 13.4482 -6.49046L13.3389 -6.16235C13.3311 -6.13876 13.3178 -6.11733 13.3002 -6.09975C13.2827 -6.08217 13.2612 -6.06893 13.2377 -6.06108L12.9095 -5.95182C12.8776 -5.94122 12.8499 -5.92086 12.8302 -5.89361C12.8106 -5.86635 12.8 -5.8336 12.8 -5.8C12.8 -5.7664 12.8106 -5.73365 12.8302 -5.7064C12.8499 -5.67914 12.8776 -5.65878 12.9095 -5.64818L13.2377 -5.53876C13.2612 -5.53092 13.2826 -5.51771 13.3002 -5.50016C13.3178 -5.48261 13.331 -5.46121 13.3389 -5.43765L13.4482 -5.10954C13.4588 -5.07765 13.4791 -5.04991 13.5064 -5.03024C13.5336 -5.01058 13.5664 -5 13.6 -5C13.6336 -5 13.6664 -5.01058 13.6936 -5.03024C13.7209 -5.04991 13.7412 -5.07765 13.7518 -5.10954L13.8611 -5.43765C13.8689 -5.46124 13.8822 -5.48267 13.8997 -5.50025C13.9173 -5.51783 13.9388 -5.53107 13.9623 -5.53892L14.2905 -5.64818C14.3223 -5.65878 14.3501 -5.67914 14.3698 -5.7064C14.3894 -5.73365 14.4 -5.7664 14.4 -5.8C14.4 -5.8336 14.3894 -5.86635 14.3698 -5.89361C14.3501 -5.92086 14.3223 -5.94122 14.2905 -5.95182L13.9623 -6.06108C13.9388 -6.06893 13.9173 -6.08217 13.8997 -6.09975C13.8822 -6.11733 13.8689 -6.13876 13.8611 -6.16235L13.7518 -6.49046Z" fill="var(--fill-0, white)"/>
<g id="Vector_17" opacity="0.48" filter="url(#filter8_f_1030_22320)">
<path d="M52.1518 4.70954C52.1412 4.67765 52.1209 4.64991 52.0936 4.63024C52.0664 4.61058 52.0336 4.6 52 4.6C51.9664 4.6 51.9336 4.61058 51.9064 4.63024C51.8791 4.64991 51.8588 4.67765 51.8482 4.70954L51.7389 5.03765C51.7311 5.06124 51.7178 5.08267 51.7003 5.10025C51.6827 5.11783 51.6612 5.13107 51.6377 5.13892L51.3095 5.24818C51.2777 5.25878 51.2499 5.27914 51.2302 5.3064C51.2106 5.33365 51.2 5.3664 51.2 5.4C51.2 5.4336 51.2106 5.46635 51.2302 5.49361C51.2499 5.52086 51.2777 5.54122 51.3095 5.55182L51.6377 5.66124C51.6612 5.66908 51.6826 5.68229 51.7002 5.69984C51.7178 5.71739 51.731 5.73879 51.7389 5.76235L51.8482 6.09046C51.8588 6.12235 51.8791 6.15009 51.9064 6.16976C51.9336 6.18942 51.9664 6.2 52 6.2C52.0336 6.2 52.0664 6.18942 52.0936 6.16976C52.1209 6.15009 52.1412 6.12235 52.1518 6.09046L52.2611 5.76235C52.2689 5.73876 52.2822 5.71733 52.2998 5.69975C52.3173 5.68217 52.3388 5.66893 52.3623 5.66108L52.6905 5.55182C52.7224 5.54122 52.7501 5.52086 52.7698 5.49361C52.7894 5.46635 52.8 5.4336 52.8 5.4C52.8 5.3664 52.7894 5.33365 52.7698 5.3064C52.7501 5.27914 52.7224 5.25878 52.6905 5.24818L52.3623 5.13892C52.3388 5.13107 52.3173 5.11783 52.2998 5.10025C52.2822 5.08267 52.2689 5.06124 52.2611 5.03765L52.1518 4.70954Z" fill="var(--fill-0, white)"/>
</g>
<g id="Vector_18" opacity="0.21" filter="url(#filter9_f_1030_22320)">
<path d="M22.5518 14.3095C22.5412 14.2777 22.5209 14.2499 22.4936 14.2302C22.4664 14.2106 22.4336 14.2 22.4 14.2C22.3664 14.2 22.3336 14.2106 22.3064 14.2302C22.2791 14.2499 22.2588 14.2777 22.2482 14.3095L22.1389 14.6377C22.1311 14.6612 22.1178 14.6827 22.1003 14.7003C22.0827 14.7178 22.0612 14.7311 22.0377 14.7389L21.7095 14.8482C21.6777 14.8588 21.6499 14.8791 21.6302 14.9064C21.6106 14.9336 21.6 14.9664 21.6 15C21.6 15.0336 21.6106 15.0664 21.6302 15.0936C21.6499 15.1209 21.6777 15.1412 21.7095 15.1518L22.0377 15.2612C22.0612 15.2691 22.0826 15.2823 22.1002 15.2998C22.1178 15.3174 22.131 15.3388 22.1389 15.3623L22.2482 15.6905C22.2588 15.7224 22.2791 15.7501 22.3064 15.7698C22.3336 15.7894 22.3664 15.8 22.4 15.8C22.4336 15.8 22.4664 15.7894 22.4936 15.7698C22.5209 15.7501 22.5412 15.7224 22.5518 15.6905L22.6611 15.3623C22.6689 15.3388 22.6822 15.3173 22.6998 15.2998C22.7173 15.2822 22.7388 15.2689 22.7623 15.2611L23.0905 15.1518C23.1224 15.1412 23.1501 15.1209 23.1698 15.0936C23.1894 15.0664 23.2 15.0336 23.2 15C23.2 14.9664 23.1894 14.9336 23.1698 14.9064C23.1501 14.8791 23.1224 14.8588 23.0905 14.8482L22.7623 14.7389C22.7388 14.7311 22.7173 14.7178 22.6998 14.7003C22.6822 14.6827 22.6689 14.6612 22.6611 14.6377L22.5518 14.3095Z" fill="var(--fill-0, white)"/>
</g>
<g id="Vector_19" opacity="0.09" filter="url(#filter10_f_1030_22320)">
<path d="M44.9518 -5.69046C44.9412 -5.72235 44.9209 -5.75009 44.8936 -5.76976C44.8664 -5.78942 44.8336 -5.8 44.8 -5.8C44.7664 -5.8 44.7336 -5.78942 44.7064 -5.76976C44.6791 -5.75009 44.6588 -5.72235 44.6482 -5.69046L44.5389 -5.36235C44.5311 -5.33876 44.5178 -5.31733 44.5002 -5.29975C44.4827 -5.28217 44.4612 -5.26893 44.4377 -5.26108L44.1095 -5.15182C44.0777 -5.14122 44.0499 -5.12086 44.0302 -5.09361C44.0106 -5.06635 44 -5.0336 44 -5C44 -4.9664 44.0106 -4.93365 44.0302 -4.90639C44.0499 -4.87914 44.0777 -4.85878 44.1095 -4.84818L44.4377 -4.73876C44.4612 -4.73092 44.4826 -4.71771 44.5002 -4.70016C44.5178 -4.68261 44.531 -4.66121 44.5389 -4.63765L44.6482 -4.30954C44.6588 -4.27765 44.6791 -4.24991 44.7064 -4.23024C44.7336 -4.21058 44.7664 -4.2 44.8 -4.2C44.8336 -4.2 44.8664 -4.21058 44.8936 -4.23024C44.9209 -4.24991 44.9412 -4.27765 44.9518 -4.30954L45.0611 -4.63765C45.0689 -4.66124 45.0822 -4.68267 45.0998 -4.70025C45.1173 -4.71783 45.1388 -4.73107 45.1623 -4.73892L45.4905 -4.84818C45.5223 -4.85878 45.5501 -4.87914 45.5698 -4.90639C45.5894 -4.93365 45.6 -4.9664 45.6 -5C45.6 -5.0336 45.5894 -5.06635 45.5698 -5.09361C45.5501 -5.12086 45.5223 -5.14122 45.4905 -5.15182L45.1623 -5.26108C45.1388 -5.26893 45.1173 -5.28217 45.0998 -5.29975C45.0822 -5.31733 45.0689 -5.33876 45.0611 -5.36235L44.9518 -5.69046Z" fill="var(--fill-0, white)"/>
</g>
<path id="Vector_20" opacity="0.17" d="M27.3518 16.7095C27.3412 16.6777 27.3209 16.6499 27.2936 16.6302C27.2664 16.6106 27.2336 16.6 27.2 16.6C27.1664 16.6 27.1336 16.6106 27.1064 16.6302C27.0791 16.6499 27.0588 16.6777 27.0482 16.7095L26.9389 17.0377C26.9311 17.0612 26.9178 17.0827 26.9003 17.1002C26.8827 17.1178 26.8612 17.1311 26.8377 17.1389L26.5095 17.2482C26.4777 17.2588 26.4499 17.2791 26.4302 17.3064C26.4106 17.3336 26.4 17.3664 26.4 17.4C26.4 17.4336 26.4106 17.4664 26.4302 17.4936C26.4499 17.5209 26.4777 17.5412 26.5095 17.5518L26.8377 17.6612C26.8612 17.6691 26.8826 17.6823 26.9002 17.6998C26.9178 17.7174 26.931 17.7388 26.9389 17.7623L27.0482 18.0905C27.0588 18.1224 27.0791 18.1501 27.1064 18.1698C27.1336 18.1894 27.1664 18.2 27.2 18.2C27.2336 18.2 27.2664 18.1894 27.2936 18.1698C27.3209 18.1501 27.3412 18.1224 27.3518 18.0905L27.4611 17.7623C27.4689 17.7388 27.4822 17.7173 27.4998 17.6998C27.5173 17.6822 27.5388 17.6689 27.5623 17.6611L27.8905 17.5518C27.9224 17.5412 27.9501 17.5209 27.9698 17.4936C27.9894 17.4664 28 17.4336 28 17.4C28 17.3664 27.9894 17.3336 27.9698 17.3064C27.9501 17.2791 27.9224 17.2588 27.8905 17.2482L27.5623 17.1389C27.5388 17.1311 27.5173 17.1178 27.4998 17.1002C27.4822 17.0827 27.4689 17.0612 27.4611 17.0377L27.3518 16.7095Z" fill="var(--fill-0, white)"/>
<g id="Vector_21" opacity="0.44" filter="url(#filter11_f_1030_22320)">
<path d="M12.1518 9.50954C12.1412 9.47765 12.1209 9.44991 12.0936 9.43024C12.0664 9.41058 12.0336 9.4 12 9.4C11.9664 9.4 11.9336 9.41058 11.9064 9.43024C11.8791 9.44991 11.8588 9.47765 11.8482 9.50954L11.7389 9.83765C11.7311 9.86124 11.7178 9.88267 11.7003 9.90025C11.6827 9.91783 11.6612 9.93107 11.6377 9.93892L11.3095 10.0482C11.2777 10.0588 11.2499 10.0791 11.2302 10.1064C11.2106 10.1336 11.2 10.1664 11.2 10.2C11.2 10.2336 11.2106 10.2664 11.2302 10.2936C11.2499 10.3209 11.2777 10.3412 11.3095 10.3518L11.6377 10.4612C11.6612 10.4691 11.6826 10.4823 11.7002 10.4998C11.7178 10.5174 11.731 10.5388 11.7389 10.5623L11.8482 10.8905C11.8588 10.9223 11.8791 10.9501 11.9064 10.9698C11.9336 10.9894 11.9664 11 12 11C12.0336 11 12.0664 10.9894 12.0936 10.9698C12.1209 10.9501 12.1412 10.9223 12.1518 10.8905L12.2611 10.5623C12.2689 10.5388 12.2822 10.5173 12.2998 10.4998C12.3173 10.4822 12.3388 10.4689 12.3623 10.4611L12.6905 10.3518C12.7224 10.3412 12.7501 10.3209 12.7698 10.2936C12.7894 10.2664 12.8 10.2336 12.8 10.2C12.8 10.1664 12.7894 10.1336 12.7698 10.1064C12.7501 10.0791 12.7224 10.0588 12.6905 10.0482L12.3623 9.93892C12.3388 9.93107 12.3173 9.91783 12.2998 9.90025C12.2822 9.88267 12.2689 9.86124 12.2611 9.83765L12.1518 9.50954Z" fill="var(--fill-0, white)"/>
</g>
<path id="Vector_22" opacity="0.12" d="M49.7518 -3.29046C49.7412 -3.32235 49.7209 -3.35009 49.6936 -3.36976C49.6664 -3.38942 49.6336 -3.4 49.6 -3.4C49.5664 -3.4 49.5336 -3.38942 49.5064 -3.36976C49.4791 -3.35009 49.4588 -3.32235 49.4482 -3.29046L49.3389 -2.96235C49.3311 -2.93876 49.3178 -2.91733 49.3002 -2.89975C49.2827 -2.88217 49.2612 -2.86893 49.2377 -2.86108L48.9095 -2.75182C48.8776 -2.74122 48.8499 -2.72086 48.8302 -2.69361C48.8106 -2.66635 48.8 -2.6336 48.8 -2.6C48.8 -2.5664 48.8106 -2.53365 48.8302 -2.5064C48.8499 -2.47914 48.8776 -2.45878 48.9095 -2.44818L49.2377 -2.33876C49.2612 -2.33092 49.2826 -2.31771 49.3002 -2.30016C49.3178 -2.28261 49.331 -2.26121 49.3389 -2.23765L49.4482 -1.90954C49.4588 -1.87765 49.4791 -1.84991 49.5064 -1.83024C49.5336 -1.81058 49.5664 -1.8 49.6 -1.8C49.6336 -1.8 49.6664 -1.81058 49.6936 -1.83024C49.7209 -1.84991 49.7412 -1.87765 49.7518 -1.90954L49.8611 -2.23765C49.8689 -2.26124 49.8822 -2.28267 49.8997 -2.30025C49.9173 -2.31783 49.9388 -2.33107 49.9623 -2.33892L50.2905 -2.44818C50.3223 -2.45878 50.3501 -2.47914 50.3698 -2.5064C50.3894 -2.53365 50.4 -2.5664 50.4 -2.6C50.4 -2.6336 50.3894 -2.66635 50.3698 -2.69361C50.3501 -2.72086 50.3223 -2.74122 50.2905 -2.75182L49.9623 -2.86108C49.9388 -2.86893 49.9173 -2.88217 49.8997 -2.89975C49.8822 -2.91733 49.8689 -2.93876 49.8611 -2.96235L49.7518 -3.29046Z" fill="var(--fill-0, white)"/>
<g id="Vector_23" opacity="0.31" filter="url(#filter12_f_1030_22320)">
<path d="M34.5518 -2.49046C34.5412 -2.52235 34.5209 -2.55009 34.4936 -2.56976C34.4664 -2.58942 34.4336 -2.6 34.4 -2.6C34.3664 -2.6 34.3336 -2.58942 34.3064 -2.56976C34.2791 -2.55009 34.2588 -2.52235 34.2482 -2.49046L34.1389 -2.16235C34.1311 -2.13876 34.1178 -2.11733 34.1002 -2.09975C34.0827 -2.08217 34.0612 -2.06893 34.0377 -2.06108L33.7095 -1.95182C33.6776 -1.94122 33.6499 -1.92086 33.6302 -1.89361C33.6106 -1.86635 33.6 -1.8336 33.6 -1.8C33.6 -1.7664 33.6106 -1.73365 33.6302 -1.7064C33.6499 -1.67914 33.6776 -1.65878 33.7095 -1.64818L34.0377 -1.53876C34.0612 -1.53092 34.0826 -1.51771 34.1002 -1.50016C34.1178 -1.48261 34.131 -1.46121 34.1389 -1.43765L34.2482 -1.10954C34.2588 -1.07765 34.2791 -1.04991 34.3064 -1.03024C34.3336 -1.01058 34.3664 -1 34.4 -1C34.4336 -1 34.4664 -1.01058 34.4936 -1.03024C34.5209 -1.04991 34.5412 -1.07765 34.5518 -1.10954L34.6611 -1.43765C34.6689 -1.46124 34.6822 -1.48267 34.6997 -1.50025C34.7173 -1.51783 34.7388 -1.53107 34.7623 -1.53892L35.0905 -1.64818C35.1223 -1.65878 35.1501 -1.67914 35.1698 -1.7064C35.1894 -1.73365 35.2 -1.7664 35.2 -1.8C35.2 -1.8336 35.1894 -1.86635 35.1698 -1.89361C35.1501 -1.92086 35.1223 -1.94122 35.0905 -1.95182L34.7623 -2.06108C34.7388 -2.06893 34.7173 -2.08217 34.6997 -2.09975C34.6822 -2.11733 34.6689 -2.13876 34.6611 -2.16235L34.5518 -2.49046Z" fill="var(--fill-0, white)"/>
</g>
<g id="Vector_24" opacity="0.14" filter="url(#filter13_f_1030_22320)">
<path d="M42.5518 11.9095C42.5412 11.8776 42.5209 11.8499 42.4936 11.8302C42.4664 11.8106 42.4336 11.8 42.4 11.8C42.3664 11.8 42.3336 11.8106 42.3064 11.8302C42.2791 11.8499 42.2588 11.8776 42.2482 11.9095L42.1389 12.2377C42.1311 12.2612 42.1178 12.2827 42.1002 12.3002C42.0827 12.3178 42.0612 12.3311 42.0377 12.3389L41.7095 12.4482C41.6776 12.4588 41.6499 12.4791 41.6302 12.5064C41.6106 12.5336 41.6 12.5664 41.6 12.6C41.6 12.6336 41.6106 12.6664 41.6302 12.6936C41.6499 12.7209 41.6776 12.7412 41.7095 12.7518L42.0377 12.8612C42.0612 12.8691 42.0826 12.8823 42.1002 12.8998C42.1178 12.9174 42.131 12.9388 42.1389 12.9623L42.2482 13.2905C42.2588 13.3223 42.2791 13.3501 42.3064 13.3698C42.3336 13.3894 42.3664 13.4 42.4 13.4C42.4336 13.4 42.4664 13.3894 42.4936 13.3698C42.5209 13.3501 42.5412 13.3223 42.5518 13.2905L42.6611 12.9623C42.6689 12.9388 42.6822 12.9173 42.6997 12.8997C42.7173 12.8822 42.7388 12.8689 42.7623 12.8611L43.0905 12.7518C43.1223 12.7412 43.1501 12.7209 43.1698 12.6936C43.1894 12.6664 43.2 12.6336 43.2 12.6C43.2 12.5664 43.1894 12.5336 43.1698 12.5064C43.1501 12.4791 43.1223 12.4588 43.0905 12.4482L42.7623 12.3389C42.7388 12.3311 42.7173 12.3178 42.6997 12.3002C42.6822 12.2827 42.6689 12.2612 42.6611 12.2377L42.5518 11.9095Z" fill="var(--fill-0, white)"/>
</g>
<g id="Vector_25" opacity="0.54" filter="url(#filter14_f_1030_22320)">
<path d="M47.3518 -6.49046C47.3412 -6.52235 47.3209 -6.55009 47.2936 -6.56976C47.2664 -6.58942 47.2336 -6.6 47.2 -6.6C47.1664 -6.6 47.1336 -6.58942 47.1064 -6.56976C47.0791 -6.55009 47.0588 -6.52235 47.0482 -6.49046L46.9389 -6.16235C46.9311 -6.13876 46.9178 -6.11733 46.9003 -6.09975C46.8827 -6.08217 46.8612 -6.06893 46.8377 -6.06108L46.5095 -5.95182C46.4777 -5.94122 46.4499 -5.92086 46.4302 -5.89361C46.4106 -5.86635 46.4 -5.8336 46.4 -5.8C46.4 -5.7664 46.4106 -5.73365 46.4302 -5.7064C46.4499 -5.67914 46.4777 -5.65878 46.5095 -5.64818L46.8377 -5.53876C46.8612 -5.53092 46.8826 -5.51771 46.9002 -5.50016C46.9178 -5.48261 46.931 -5.46121 46.9389 -5.43765L47.0482 -5.10954C47.0588 -5.07765 47.0791 -5.04991 47.1064 -5.03024C47.1336 -5.01058 47.1664 -5 47.2 -5C47.2336 -5 47.2664 -5.01058 47.2936 -5.03024C47.3209 -5.04991 47.3412 -5.07765 47.3518 -5.10954L47.4611 -5.43765C47.4689 -5.46124 47.4822 -5.48267 47.4998 -5.50025C47.5173 -5.51783 47.5388 -5.53107 47.5623 -5.53892L47.8905 -5.64818C47.9224 -5.65878 47.9501 -5.67914 47.9698 -5.7064C47.9894 -5.73365 48 -5.7664 48 -5.8C48 -5.8336 47.9894 -5.86635 47.9698 -5.89361C47.9501 -5.92086 47.9224 -5.94122 47.8905 -5.95182L47.5623 -6.06108C47.5388 -6.06893 47.5173 -6.08217 47.4998 -6.09975C47.4822 -6.11733 47.4689 -6.13876 47.4611 -6.16235L47.3518 -6.49046Z" fill="var(--fill-0, white)"/>
</g>
<path id="Vector_26" opacity="0.49" d="M46.5518 21.5095C46.5412 21.4776 46.5209 21.4499 46.4936 21.4302C46.4664 21.4106 46.4336 21.4 46.4 21.4C46.3664 21.4 46.3336 21.4106 46.3064 21.4302C46.2791 21.4499 46.2588 21.4776 46.2482 21.5095L46.1389 21.8377C46.1311 21.8612 46.1178 21.8827 46.1002 21.9002C46.0827 21.9178 46.0612 21.9311 46.0377 21.9389L45.7095 22.0482C45.6776 22.0588 45.6499 22.0791 45.6302 22.1064C45.6106 22.1336 45.6 22.1664 45.6 22.2C45.6 22.2336 45.6106 22.2664 45.6302 22.2936C45.6499 22.3209 45.6776 22.3412 45.7095 22.3518L46.0377 22.4612C46.0612 22.4691 46.0826 22.4823 46.1002 22.4998C46.1178 22.5174 46.131 22.5388 46.1389 22.5623L46.2482 22.8905C46.2588 22.9223 46.2791 22.9501 46.3064 22.9698C46.3336 22.9894 46.3664 23 46.4 23C46.4336 23 46.4664 22.9894 46.4936 22.9698C46.5209 22.9501 46.5412 22.9223 46.5518 22.8905L46.6611 22.5623C46.6689 22.5388 46.6822 22.5173 46.6997 22.4998C46.7173 22.4822 46.7388 22.4689 46.7623 22.4611L47.0905 22.3518C47.1223 22.3412 47.1501 22.3209 47.1698 22.2936C47.1894 22.2664 47.2 22.2336 47.2 22.2C47.2 22.1664 47.1894 22.1336 47.1698 22.1064C47.1501 22.0791 47.1223 22.0588 47.0905 22.0482L46.7623 21.9389C46.7388 21.9311 46.7173 21.9178 46.6997 21.9002C46.6822 21.8827 46.6689 21.8612 46.6611 21.8377L46.5518 21.5095Z" fill="var(--fill-0, white)"/>
<g id="Vector_27" opacity="0.41" filter="url(#filter15_f_1030_22320)">
<path d="M15.3518 21.5095C15.3412 21.4776 15.3209 21.4499 15.2936 21.4302C15.2664 21.4106 15.2336 21.4 15.2 21.4C15.1664 21.4 15.1336 21.4106 15.1064 21.4302C15.0791 21.4499 15.0588 21.4776 15.0482 21.5095L14.9389 21.8377C14.9311 21.8612 14.9178 21.8827 14.9002 21.9002C14.8827 21.9178 14.8612 21.9311 14.8377 21.9389L14.5095 22.0482C14.4777 22.0588 14.4499 22.0791 14.4302 22.1064C14.4106 22.1336 14.4 22.1664 14.4 22.2C14.4 22.2336 14.4106 22.2664 14.4302 22.2936C14.4499 22.3209 14.4777 22.3412 14.5095 22.3518L14.8377 22.4612C14.8612 22.4691 14.8826 22.4823 14.9002 22.4998C14.9178 22.5174 14.931 22.5388 14.9389 22.5623L15.0482 22.8905C15.0588 22.9223 15.0791 22.9501 15.1064 22.9698C15.1336 22.9894 15.1664 23 15.2 23C15.2336 23 15.2664 22.9894 15.2936 22.9698C15.3209 22.9501 15.3412 22.9223 15.3518 22.8905L15.4611 22.5623C15.4689 22.5388 15.4822 22.5173 15.4998 22.4998C15.5173 22.4822 15.5388 22.4689 15.5623 22.4611L15.8905 22.3518C15.9224 22.3412 15.9501 22.3209 15.9698 22.2936C15.9894 22.2664 16 22.2336 16 22.2C16 22.1664 15.9894 22.1336 15.9698 22.1064C15.9501 22.0791 15.9224 22.0588 15.8905 22.0482L15.5623 21.9389C15.5388 21.9311 15.5173 21.9178 15.4998 21.9002C15.4822 21.8827 15.4689 21.8612 15.4611 21.8377L15.3518 21.5095Z" fill="var(--fill-0, white)"/>
</g>
<path id="Vector_28" opacity="0.55" d="M29.7518 -6.49046C29.7412 -6.52235 29.7209 -6.55009 29.6936 -6.56976C29.6664 -6.58942 29.6336 -6.6 29.6 -6.6C29.5664 -6.6 29.5336 -6.58942 29.5064 -6.56976C29.4791 -6.55009 29.4588 -6.52235 29.4482 -6.49046L29.3389 -6.16235C29.3311 -6.13876 29.3178 -6.11733 29.3002 -6.09975C29.2827 -6.08217 29.2612 -6.06893 29.2377 -6.06108L28.9095 -5.95182C28.8776 -5.94122 28.8499 -5.92086 28.8302 -5.89361C28.8106 -5.86635 28.8 -5.8336 28.8 -5.8C28.8 -5.7664 28.8106 -5.73365 28.8302 -5.7064C28.8499 -5.67914 28.8776 -5.65878 28.9095 -5.64818L29.2377 -5.53876C29.2612 -5.53092 29.2826 -5.51771 29.3002 -5.50016C29.3178 -5.48261 29.331 -5.46121 29.3389 -5.43765L29.4482 -5.10954C29.4588 -5.07765 29.4791 -5.04991 29.5064 -5.03024C29.5336 -5.01058 29.5664 -5 29.6 -5C29.6336 -5 29.6664 -5.01058 29.6936 -5.03024C29.7209 -5.04991 29.7412 -5.07765 29.7518 -5.10954L29.8611 -5.43765C29.8689 -5.46124 29.8822 -5.48267 29.8997 -5.50025C29.9173 -5.51783 29.9388 -5.53107 29.9623 -5.53892L30.2905 -5.64818C30.3223 -5.65878 30.3501 -5.67914 30.3698 -5.7064C30.3894 -5.73365 30.4 -5.7664 30.4 -5.8C30.4 -5.8336 30.3894 -5.86635 30.3698 -5.89361C30.3501 -5.92086 30.3223 -5.94122 30.2905 -5.95182L29.9623 -6.06108C29.9388 -6.06893 29.9173 -6.08217 29.8997 -6.09975C29.8822 -6.11733 29.8689 -6.13876 29.8611 -6.16235L29.7518 -6.49046Z" fill="var(--fill-0, white)"/>
<path id="Vector_29" opacity="0.09" d="M18.5518 15.1095C18.5412 15.0777 18.5209 15.0499 18.4936 15.0302C18.4664 15.0106 18.4336 15 18.4 15C18.3664 15 18.3336 15.0106 18.3064 15.0302C18.2791 15.0499 18.2588 15.0777 18.2482 15.1095L18.1389 15.4377C18.1311 15.4612 18.1178 15.4827 18.1003 15.5002C18.0827 15.5178 18.0612 15.5311 18.0377 15.5389L17.7095 15.6482C17.6777 15.6588 17.6499 15.6791 17.6302 15.7064C17.6106 15.7336 17.6 15.7664 17.6 15.8C17.6 15.8336 17.6106 15.8664 17.6302 15.8936C17.6499 15.9209 17.6777 15.9412 17.7095 15.9518L18.0377 16.0612C18.0612 16.0691 18.0826 16.0823 18.1002 16.0998C18.1178 16.1174 18.131 16.1388 18.1389 16.1623L18.2482 16.4905C18.2588 16.5223 18.2791 16.5501 18.3064 16.5698C18.3336 16.5894 18.3664 16.6 18.4 16.6C18.4336 16.6 18.4664 16.5894 18.4936 16.5698C18.5209 16.5501 18.5412 16.5223 18.5518 16.4905L18.6611 16.1623C18.6689 16.1388 18.6822 16.1173 18.6998 16.0998C18.7173 16.0822 18.7388 16.0689 18.7623 16.0611L19.0905 15.9518C19.1224 15.9412 19.1501 15.9209 19.1698 15.8936C19.1894 15.8664 19.2 15.8336 19.2 15.8C19.2 15.7664 19.1894 15.7336 19.1698 15.7064C19.1501 15.6791 19.1224 15.6588 19.0905 15.6482L18.7623 15.5389C18.7388 15.5311 18.7173 15.5178 18.6998 15.5002C18.6822 15.4827 18.6689 15.4612 18.6611 15.4377L18.5518 15.1095Z" fill="var(--fill-0, white)"/>
<g id="Vector_30" opacity="0.47" filter="url(#filter16_f_1030_22320)">
<path d="M26.5518 -1.69046C26.5412 -1.72235 26.5209 -1.75009 26.4936 -1.76976C26.4664 -1.78942 26.4336 -1.8 26.4 -1.8C26.3664 -1.8 26.3336 -1.78942 26.3064 -1.76976C26.2791 -1.75009 26.2588 -1.72235 26.2482 -1.69046L26.1389 -1.36235C26.1311 -1.33876 26.1178 -1.31733 26.1003 -1.29975C26.0827 -1.28217 26.0612 -1.26893 26.0377 -1.26108L25.7095 -1.15182C25.6777 -1.14122 25.6499 -1.12086 25.6302 -1.09361C25.6106 -1.06635 25.6 -1.0336 25.6 -1C25.6 -0.966397 25.6106 -0.933646 25.6302 -0.906395C25.6499 -0.879145 25.6777 -0.858777 25.7095 -0.848183L26.0377 -0.738758C26.0612 -0.730924 26.0826 -0.717708 26.1002 -0.700159C26.1178 -0.682611 26.131 -0.66121 26.1389 -0.637653L26.2482 -0.309541C26.2588 -0.277651 26.2791 -0.249907 26.3064 -0.230244C26.3336 -0.210582 26.3664 -0.200001 26.4 -0.200001C26.4336 -0.200001 26.4664 -0.210582 26.4936 -0.230244C26.5209 -0.249907 26.5412 -0.277651 26.5518 -0.309541L26.6611 -0.637653C26.6689 -0.66124 26.6822 -0.682672 26.6998 -0.70025C26.7173 -0.717828 26.7388 -0.731068 26.7623 -0.738918L27.0905 -0.848183C27.1224 -0.858777 27.1501 -0.879145 27.1698 -0.906395C27.1894 -0.933646 27.2 -0.966397 27.2 -1C27.2 -1.0336 27.1894 -1.06635 27.1698 -1.09361C27.1501 -1.12086 27.1224 -1.14122 27.0905 -1.15182L26.7623 -1.26108C26.7388 -1.26893 26.7173 -1.28217 26.6998 -1.29975C26.6822 -1.31733 26.6689 -1.33876 26.6611 -1.36235L26.5518 -1.69046Z" fill="var(--fill-0, white)"/>
</g>
<g id="Vector_31" opacity="0.35" filter="url(#filter17_f_1030_22320)">
<path d="M15.3518 -2.49046C15.3412 -2.52235 15.3209 -2.55009 15.2936 -2.56976C15.2664 -2.58942 15.2336 -2.6 15.2 -2.6C15.1664 -2.6 15.1336 -2.58942 15.1064 -2.56976C15.0791 -2.55009 15.0588 -2.52235 15.0482 -2.49046L14.9389 -2.16235C14.9311 -2.13876 14.9178 -2.11733 14.9002 -2.09975C14.8827 -2.08217 14.8612 -2.06893 14.8377 -2.06108L14.5095 -1.95182C14.4777 -1.94122 14.4499 -1.92086 14.4302 -1.89361C14.4106 -1.86635 14.4 -1.8336 14.4 -1.8C14.4 -1.7664 14.4106 -1.73365 14.4302 -1.7064C14.4499 -1.67914 14.4777 -1.65878 14.5095 -1.64818L14.8377 -1.53876C14.8612 -1.53092 14.8826 -1.51771 14.9002 -1.50016C14.9178 -1.48261 14.931 -1.46121 14.9389 -1.43765L15.0482 -1.10954C15.0588 -1.07765 15.0791 -1.04991 15.1064 -1.03024C15.1336 -1.01058 15.1664 -1 15.2 -1C15.2336 -1 15.2664 -1.01058 15.2936 -1.03024C15.3209 -1.04991 15.3412 -1.07765 15.3518 -1.10954L15.4611 -1.43765C15.4689 -1.46124 15.4822 -1.48267 15.4998 -1.50025C15.5173 -1.51783 15.5388 -1.53107 15.5623 -1.53892L15.8905 -1.64818C15.9224 -1.65878 15.9501 -1.67914 15.9698 -1.7064C15.9894 -1.73365 16 -1.7664 16 -1.8C16 -1.8336 15.9894 -1.86635 15.9698 -1.89361C15.9501 -1.92086 15.9224 -1.94122 15.8905 -1.95182L15.5623 -2.06108C15.5388 -2.06893 15.5173 -2.08217 15.4998 -2.09975C15.4822 -2.11733 15.4689 -2.13876 15.4611 -2.16235L15.3518 -2.49046Z" fill="var(--fill-0, white)"/>
</g>
<path id="Vector_32" opacity="0.15" d="M34.5518 14.3095C34.5412 14.2777 34.5209 14.2499 34.4936 14.2302C34.4664 14.2106 34.4336 14.2 34.4 14.2C34.3664 14.2 34.3336 14.2106 34.3064 14.2302C34.2791 14.2499 34.2588 14.2777 34.2482 14.3095L34.1389 14.6377C34.1311 14.6612 34.1178 14.6827 34.1002 14.7003C34.0827 14.7178 34.0612 14.7311 34.0377 14.7389L33.7095 14.8482C33.6776 14.8588 33.6499 14.8791 33.6302 14.9064C33.6106 14.9336 33.6 14.9664 33.6 15C33.6 15.0336 33.6106 15.0664 33.6302 15.0936C33.6499 15.1209 33.6776 15.1412 33.7095 15.1518L34.0377 15.2612C34.0612 15.2691 34.0826 15.2823 34.1002 15.2998C34.1178 15.3174 34.131 15.3388 34.1389 15.3623L34.2482 15.6905C34.2588 15.7224 34.2791 15.7501 34.3064 15.7698C34.3336 15.7894 34.3664 15.8 34.4 15.8C34.4336 15.8 34.4664 15.7894 34.4936 15.7698C34.5209 15.7501 34.5412 15.7224 34.5518 15.6905L34.6611 15.3623C34.6689 15.3388 34.6822 15.3173 34.6997 15.2998C34.7173 15.2822 34.7388 15.2689 34.7623 15.2611L35.0905 15.1518C35.1223 15.1412 35.1501 15.1209 35.1698 15.0936C35.1894 15.0664 35.2 15.0336 35.2 15C35.2 14.9664 35.1894 14.9336 35.1698 14.9064C35.1501 14.8791 35.1223 14.8588 35.0905 14.8482L34.7623 14.7389C34.7388 14.7311 34.7173 14.7178 34.6997 14.7003C34.6822 14.6827 34.6689 14.6612 34.6611 14.6377L34.5518 14.3095Z" fill="var(--fill-0, white)"/>
</g>
<g id="Rectangle 28" filter="url(#filter18_f_1030_22320)">
<path d="M4 14H36L29.0435 43H10.9565L4 14Z" fill="url(#paint0_linear_1030_22320)" fill-opacity="0.4"/>
</g>
<g id="Ellipse 165" filter="url(#filter19_f_1030_22320)">
<ellipse cx="24" cy="43.5" rx="15" ry="3.5" fill="var(--fill-0, #6686C3)"/>
</g>
<g id="Ellipse 166" filter="url(#filter20_f_1030_22320)">
<ellipse cx="24" cy="43.5" rx="7" ry="1.5" fill="var(--fill-0, #BDD4FF)"/>
</g>
<g id="Ellipse 167" filter="url(#filter21_f_1030_22320)">
<ellipse cx="24" cy="44" rx="7" ry="1" fill="var(--fill-0, #BDD4FF)"/>
</g>
<g id="Group">
<g id="Vector_33">
</g>
<g id="Vector_34" filter="url(#filter22_d_1030_22320)">
<path d="M10.88 25.054C12.2562 18.9647 15.1966 13.3396 19.411 8.734C19.4859 8.65247 19.577 8.58739 19.6784 8.54287C19.7797 8.49835 19.8893 8.47537 20 8.47537C20.1107 8.47537 20.2203 8.49835 20.3216 8.54287C20.423 8.58739 20.5141 8.65247 20.589 8.734C20.755 8.914 20.893 9.066 21.002 9.189C24.9986 13.7109 27.7906 19.1674 29.12 25.054C26.979 25.505 24.78 25.801 22.536 25.928L20.447 30.106C20.4054 30.1889 20.3416 30.2587 20.2627 30.3074C20.1837 30.3562 20.0928 30.382 20 30.382C19.9072 30.382 19.8163 30.3562 19.7373 30.3074C19.6584 30.2587 19.5946 30.1889 19.553 30.106L17.464 25.928C15.2505 25.8029 13.0495 25.5107 10.88 25.054V25.054ZM20 22C20.7956 22 21.5587 21.6839 22.1213 21.1213C22.6839 20.5587 23 19.7956 23 19C23 18.2044 22.6839 17.4413 22.1213 16.8787C21.5587 16.3161 20.7956 16 20 16C19.2044 16 18.4413 16.3161 17.8787 16.8787C17.3161 17.4413 17 18.2044 17 19C17 19.7956 17.3161 20.5587 17.8787 21.1213C18.4413 21.6839 19.2044 22 20 22V22Z" fill="url(#paint1_radial_1030_22320)" shape-rendering="crispEdges"/>
<path d="M20.0001 8.72537C20.0762 8.72538 20.1512 8.74168 20.2208 8.77224C20.2905 8.80285 20.3539 8.84705 20.4054 8.9031C20.5706 9.08221 20.7071 9.23305 20.8146 9.35427C24.7266 13.7805 27.4754 19.1091 28.8175 24.8592C26.7678 25.2784 24.6655 25.5572 22.5216 25.6785L22.3771 25.6863L22.3126 25.8162L20.2238 29.9939C20.203 30.0354 20.1704 30.0701 20.131 30.0945C20.0916 30.1188 20.0464 30.1316 20.0001 30.1316C19.9537 30.1316 19.9078 30.1189 19.8683 30.0945C19.829 30.0701 19.7972 30.0353 19.7765 29.9939L17.6876 25.8162L17.6232 25.6863L17.4777 25.6785L16.6534 25.6238C14.8154 25.4851 12.9881 25.2284 11.1818 24.8592C12.5717 18.9084 15.4676 13.4126 19.5948 8.90213C19.6461 8.84644 19.7091 8.80276 19.7784 8.77224C19.8481 8.74164 19.924 8.72537 20.0001 8.72537ZM20.0001 15.7498C19.1382 15.7498 18.3117 16.0925 17.7023 16.7019C17.0928 17.3114 16.7502 18.1379 16.7501 18.9998C16.7501 19.8617 17.0928 20.6881 17.7023 21.2976C18.3118 21.9071 19.1382 22.2498 20.0001 22.2498C20.862 22.2498 21.6885 21.9071 22.298 21.2976C22.9074 20.6882 23.2501 19.8617 23.2501 18.9998C23.2501 18.1379 22.9074 17.3114 22.298 16.7019C21.6885 16.0925 20.862 15.7498 20.0001 15.7498Z" stroke="url(#paint2_linear_1030_22320)" stroke-width="0.5" shape-rendering="crispEdges"/>
</g>
</g>
</g>
<rect x="4.5" y="3.5" width="31" height="31" rx="15.5" stroke="url(#paint3_linear_1030_22320)" stroke-opacity="0.3"/>
</g>
<defs>
<filter id="filter0_dd_1030_22320" x="0" y="0" width="40" height="41" filterUnits="userSpaceOnUse" color-interpolation-filters="sRGB">
<feFlood flood-opacity="0" result="BackgroundImageFix"/>
<feColorMatrix in="SourceAlpha" type="matrix" values="0 0 0 0 0 0 0 0 0 0 0 0 0 0 0 0 0 0 127 0" result="hardAlpha"/>
<feMorphology radius="3" operator="dilate" in="SourceAlpha" result="effect1_dropShadow_1030_22320"/>
<feOffset/>
<feComposite in2="hardAlpha" operator="out"/>
<feColorMatrix type="matrix" values="0 0 0 0 0.109804 0 0 0 0 1 0 0 0 0 1 0 0 0 0.17 0"/>
<feBlend mode="normal" in2="BackgroundImageFix" result="effect1_dropShadow_1030_22320"/>
<feColorMatrix in="SourceAlpha" type="matrix" values="0 0 0 0 0 0 0 0 0 0 0 0 0 0 0 0 0 0 127 0" result="hardAlpha"/>
<feMorphology radius="1" operator="erode" in="SourceAlpha" result="effect2_dropShadow_1030_22320"/>
<feOffset dy="2"/>
<feGaussianBlur stdDeviation="2.5"/>
<feComposite in2="hardAlpha" operator="out"/>
<feColorMatrix type="matrix" values="0 0 0 0 0.161857 0 0 0 0 0.171682 0 0 0 0 0.197884 0 0 0 0.5 0"/>
<feBlend mode="normal" in2="effect1_dropShadow_1030_22320" result="effect2_dropShadow_1030_22320"/>
<feBlend mode="normal" in="SourceGraphic" in2="effect2_dropShadow_1030_22320" result="shape"/>
</filter>
<filter id="filter1_f_1030_22320" x="39" y="11.6" width="3.6" height="3.6" filterUnits="userSpaceOnUse" color-interpolation-filters="sRGB">
<feFlood flood-opacity="0" result="BackgroundImageFix"/>
<feBlend mode="normal" in="SourceGraphic" in2="BackgroundImageFix" result="shape"/>
<feGaussianBlur stdDeviation="0.5" result="effect1_foregroundBlur_1030_22320"/>
</filter>
<filter id="filter2_f_1030_22320" x="3" y="-5.2" width="3.6" height="3.6" filterUnits="userSpaceOnUse" color-interpolation-filters="sRGB">
<feFlood flood-opacity="0" result="BackgroundImageFix"/>
<feBlend mode="normal" in="SourceGraphic" in2="BackgroundImageFix" result="shape"/>
<feGaussianBlur stdDeviation="0.5" result="effect1_foregroundBlur_1030_22320"/>
</filter>
<filter id="filter3_f_1030_22320" x="28.6" y="2.8" width="3.6" height="3.6" filterUnits="userSpaceOnUse" color-interpolation-filters="sRGB">
<feFlood flood-opacity="0" result="BackgroundImageFix"/>
<feBlend mode="normal" in="SourceGraphic" in2="BackgroundImageFix" result="shape"/>
<feGaussianBlur stdDeviation="0.5" result="effect1_foregroundBlur_1030_22320"/>
</filter>
<filter id="filter4_f_1030_22320" x="23" y="10.8" width="3.6" height="3.6" filterUnits="userSpaceOnUse" color-interpolation-filters="sRGB">
<feFlood flood-opacity="0" result="BackgroundImageFix"/>
<feBlend mode="normal" in="SourceGraphic" in2="BackgroundImageFix" result="shape"/>
<feGaussianBlur stdDeviation="0.5" result="effect1_foregroundBlur_1030_22320"/>
</filter>
<filter id="filter5_f_1030_22320" x="13.4" y="10.8" width="3.6" height="3.6" filterUnits="userSpaceOnUse" color-interpolation-filters="sRGB">
<feFlood flood-opacity="0" result="BackgroundImageFix"/>
<feBlend mode="normal" in="SourceGraphic" in2="BackgroundImageFix" result="shape"/>
<feGaussianBlur stdDeviation="0.5" result="effect1_foregroundBlur_1030_22320"/>
</filter>
<filter id="filter6_f_1030_22320" x="22.2" y="3.6" width="3.6" height="3.6" filterUnits="userSpaceOnUse" color-interpolation-filters="sRGB">
<feFlood flood-opacity="0" result="BackgroundImageFix"/>
<feBlend mode="normal" in="SourceGraphic" in2="BackgroundImageFix" result="shape"/>
<feGaussianBlur stdDeviation="0.5" result="effect1_foregroundBlur_1030_22320"/>
</filter>
<filter id="filter7_f_1030_22320" x="0.6" y="2.8" width="3.6" height="3.6" filterUnits="userSpaceOnUse" color-interpolation-filters="sRGB">
<feFlood flood-opacity="0" result="BackgroundImageFix"/>
<feBlend mode="normal" in="SourceGraphic" in2="BackgroundImageFix" result="shape"/>
<feGaussianBlur stdDeviation="0.5" result="effect1_foregroundBlur_1030_22320"/>
</filter>
<filter id="filter8_f_1030_22320" x="50.2" y="3.6" width="3.6" height="3.6" filterUnits="userSpaceOnUse" color-interpolation-filters="sRGB">
<feFlood flood-opacity="0" result="BackgroundImageFix"/>
<feBlend mode="normal" in="SourceGraphic" in2="BackgroundImageFix" result="shape"/>
<feGaussianBlur stdDeviation="0.5" result="effect1_foregroundBlur_1030_22320"/>
</filter>
<filter id="filter9_f_1030_22320" x="20.6" y="13.2" width="3.6" height="3.6" filterUnits="userSpaceOnUse" color-interpolation-filters="sRGB">
<feFlood flood-opacity="0" result="BackgroundImageFix"/>
<feBlend mode="normal" in="SourceGraphic" in2="BackgroundImageFix" result="shape"/>
<feGaussianBlur stdDeviation="0.5" result="effect1_foregroundBlur_1030_22320"/>
</filter>
<filter id="filter10_f_1030_22320" x="43" y="-6.8" width="3.6" height="3.6" filterUnits="userSpaceOnUse" color-interpolation-filters="sRGB">
<feFlood flood-opacity="0" result="BackgroundImageFix"/>
<feBlend mode="normal" in="SourceGraphic" in2="BackgroundImageFix" result="shape"/>
<feGaussianBlur stdDeviation="0.5" result="effect1_foregroundBlur_1030_22320"/>
</filter>
<filter id="filter11_f_1030_22320" x="10.2" y="8.4" width="3.6" height="3.6" filterUnits="userSpaceOnUse" color-interpolation-filters="sRGB">
<feFlood flood-opacity="0" result="BackgroundImageFix"/>
<feBlend mode="normal" in="SourceGraphic" in2="BackgroundImageFix" result="shape"/>
<feGaussianBlur stdDeviation="0.5" result="effect1_foregroundBlur_1030_22320"/>
</filter>
<filter id="filter12_f_1030_22320" x="32.6" y="-3.6" width="3.6" height="3.6" filterUnits="userSpaceOnUse" color-interpolation-filters="sRGB">
<feFlood flood-opacity="0" result="BackgroundImageFix"/>
<feBlend mode="normal" in="SourceGraphic" in2="BackgroundImageFix" result="shape"/>
<feGaussianBlur stdDeviation="0.5" result="effect1_foregroundBlur_1030_22320"/>
</filter>
<filter id="filter13_f_1030_22320" x="40.6" y="10.8" width="3.6" height="3.6" filterUnits="userSpaceOnUse" color-interpolation-filters="sRGB">
<feFlood flood-opacity="0" result="BackgroundImageFix"/>
<feBlend mode="normal" in="SourceGraphic" in2="BackgroundImageFix" result="shape"/>
<feGaussianBlur stdDeviation="0.5" result="effect1_foregroundBlur_1030_22320"/>
</filter>
<filter id="filter14_f_1030_22320" x="45.4" y="-7.6" width="3.6" height="3.6" filterUnits="userSpaceOnUse" color-interpolation-filters="sRGB">
<feFlood flood-opacity="0" result="BackgroundImageFix"/>
<feBlend mode="normal" in="SourceGraphic" in2="BackgroundImageFix" result="shape"/>
<feGaussianBlur stdDeviation="0.5" result="effect1_foregroundBlur_1030_22320"/>
</filter>
<filter id="filter15_f_1030_22320" x="13.4" y="20.4" width="3.6" height="3.6" filterUnits="userSpaceOnUse" color-interpolation-filters="sRGB">
<feFlood flood-opacity="0" result="BackgroundImageFix"/>
<feBlend mode="normal" in="SourceGraphic" in2="BackgroundImageFix" result="shape"/>
<feGaussianBlur stdDeviation="0.5" result="effect1_foregroundBlur_1030_22320"/>
</filter>
<filter id="filter16_f_1030_22320" x="24.6" y="-2.8" width="3.6" height="3.6" filterUnits="userSpaceOnUse" color-interpolation-filters="sRGB">
<feFlood flood-opacity="0" result="BackgroundImageFix"/>
<feBlend mode="normal" in="SourceGraphic" in2="BackgroundImageFix" result="shape"/>
<feGaussianBlur stdDeviation="0.5" result="effect1_foregroundBlur_1030_22320"/>
</filter>
<filter id="filter17_f_1030_22320" x="13.4" y="-3.6" width="3.6" height="3.6" filterUnits="userSpaceOnUse" color-interpolation-filters="sRGB">
<feFlood flood-opacity="0" result="BackgroundImageFix"/>
<feBlend mode="normal" in="SourceGraphic" in2="BackgroundImageFix" result="shape"/>
<feGaussianBlur stdDeviation="0.5" result="effect1_foregroundBlur_1030_22320"/>
</filter>
<filter id="filter18_f_1030_22320" x="2" y="12" width="36" height="33" filterUnits="userSpaceOnUse" color-interpolation-filters="sRGB">
<feFlood flood-opacity="0" result="BackgroundImageFix"/>
<feBlend mode="normal" in="SourceGraphic" in2="BackgroundImageFix" result="shape"/>
<feGaussianBlur stdDeviation="1" result="effect1_foregroundBlur_1030_22320"/>
</filter>
<filter id="filter19_f_1030_22320" x="4" y="35" width="40" height="17" filterUnits="userSpaceOnUse" color-interpolation-filters="sRGB">
<feFlood flood-opacity="0" result="BackgroundImageFix"/>
<feBlend mode="normal" in="SourceGraphic" in2="BackgroundImageFix" result="shape"/>
<feGaussianBlur stdDeviation="2.5" result="effect1_foregroundBlur_1030_22320"/>
</filter>
<filter id="filter20_f_1030_22320" x="14" y="39" width="20" height="9" filterUnits="userSpaceOnUse" color-interpolation-filters="sRGB">
<feFlood flood-opacity="0" result="BackgroundImageFix"/>
<feBlend mode="normal" in="SourceGraphic" in2="BackgroundImageFix" result="shape"/>
<feGaussianBlur stdDeviation="1.5" result="effect1_foregroundBlur_1030_22320"/>
</filter>
<filter id="filter21_f_1030_22320" x="14" y="40" width="20" height="8" filterUnits="userSpaceOnUse" color-interpolation-filters="sRGB">
<feFlood flood-opacity="0" result="BackgroundImageFix"/>
<feBlend mode="normal" in="SourceGraphic" in2="BackgroundImageFix" result="shape"/>
<feGaussianBlur stdDeviation="1.5" result="effect1_foregroundBlur_1030_22320"/>
</filter>
<filter id="filter22_d_1030_22320" x="3.88" y="4.47537" width="32.24" height="35.9066" filterUnits="userSpaceOnUse" color-interpolation-filters="sRGB">
<feFlood flood-opacity="0" result="BackgroundImageFix"/>
<feColorMatrix in="SourceAlpha" type="matrix" values="0 0 0 0 0 0 0 0 0 0 0 0 0 0 0 0 0 0 127 0" result="hardAlpha"/>
<feOffset dy="3"/>
<feGaussianBlur stdDeviation="3.5"/>
<feComposite in2="hardAlpha" operator="out"/>
<feColorMatrix type="matrix" values="0 0 0 0 0 0 0 0 0 0 0 0 0 0 0 0 0 0 0.18 0"/>
<feBlend mode="normal" in2="BackgroundImageFix" result="effect1_dropShadow_1030_22320"/>
<feBlend mode="normal" in="SourceGraphic" in2="effect1_dropShadow_1030_22320" result="shape"/>
</filter>
<linearGradient id="paint0_linear_1030_22320" x1="20" y1="14" x2="19.5156" y2="38.0006" gradientUnits="userSpaceOnUse">
<stop stop-color="#597AB9" stop-opacity="0"/>
<stop offset="1" stop-color="#00F8FF"/>
</linearGradient>
<radialGradient id="paint1_radial_1030_22320" cx="0" cy="0" r="1" gradientUnits="userSpaceOnUse" gradientTransform="translate(20 7.4322) rotate(90) scale(38.0758 31.7029)">
<stop stop-color="white"/>
<stop offset="1" stop-color="white" stop-opacity="0"/>
</radialGradient>
<linearGradient id="paint2_linear_1030_22320" x1="20" y1="8.47537" x2="20" y2="30.382" gradientUnits="userSpaceOnUse">
<stop offset="0.735221" stop-color="white" stop-opacity="0"/>
<stop offset="1" stop-color="white" stop-opacity="0.8"/>
</linearGradient>
<linearGradient id="paint3_linear_1030_22320" x1="20" y1="3" x2="20" y2="35" gradientUnits="userSpaceOnUse">
<stop stop-color="white"/>
<stop offset="0.510417" stop-color="white" stop-opacity="0"/>
</linearGradient>
<clipPath id="clip0_1030_22320">
<rect x="4" y="3" width="32" height="32" rx="16" fill="white"/>
</clipPath>
</defs>
</svg>
